<?xml version="1.0" encoding="utf-8"?>
<!-- Generator: Adobe Illustrator 16.0.0, SVG Export Plug-In . SVG Version: 6.00 Build 0)  -->
<!DOCTYPE svg PUBLIC "-//W3C//DTD SVG 1.1//EN" "http://www.w3.org/Graphics/SVG/1.1/DTD/svg11.dtd">
<svg version="1.1" id="Слой_1" xmlns="http://www.w3.org/2000/svg" xmlns:xlink="http://www.w3.org/1999/xlink" x="0px" y="0px"
	 width="900px" height="900px" viewBox="0 0 900 900" enable-background="new 0 0 900 900" xml:space="preserve">
<g>
	<path fill-rule="evenodd" clip-rule="evenodd" fill="#FF0000" d="M448.156,526.249c-39.594-52.844-79.327-104.085-116.998-156.799
		c-23.97-33.541-43.833-69.822-51.41-111.228c-9.914-54.183,1.625-103.43,37.023-145.893
		c39.679-47.602,92.063-67.075,152.695-60.928c80.444,8.156,139.206,67.547,152.348,145.667
		c6.317,37.558-4.456,71.563-19.276,104.542c-23.821,53.009-59.119,99.096-92.216,146.387
		c-15.284,21.84-32.266,42.499-48.638,63.567C458.283,515.94,454.172,519.765,448.156,526.249z M449.681,91.112
		c-56.305-4.383-123.403,52.127-118.824,126.995c3.276,53.572,51.926,112.781,119.463,112.601
		c65.4-0.174,119.359-55.289,119.898-120.429C570.733,147.982,513.881,87.687,449.681,91.112z"/>
	<path fill-rule="evenodd" clip-rule="evenodd" fill="#FF0000" d="M518.74,210.481c-0.004,39.247-30.378,69.544-69.333,69.156
		c-37.975-0.376-68.292-31.183-68.295-69.394c-0.002-37.983,30.682-69.809,68.501-69.077
		C489.362,141.935,518.856,169.674,518.74,210.481z"/>
</g>
<g>
	<path fill="#555555" d="M225.208,733.046v-56.61l-32.475-91.279h30.719l10.093,35.326c2.633,9.436,5.486,20.406,7.68,31.377h0.439
		c1.755-10.751,4.169-21.503,6.802-32.035l8.777-34.668h29.841l-33.133,90.182v57.708H225.208z"/>
	<path fill="#555555" d="M342.377,733.046l-1.536-10.532h-0.439c-5.924,8.338-14.262,12.287-23.697,12.287
		c-16.237,0-28.306-13.604-28.306-32.693c0-28.086,24.795-39.715,49.15-39.935v-2.413c0-8.339-5.047-14.482-15.14-14.482
		c-8.557,0-15.579,2.194-21.942,6.144l-5.266-19.309c5.924-3.511,18.431-8.118,33.352-8.118c32.694,0,37.96,22.819,37.96,44.542
		v39.935c0,8.558,0.438,17.334,1.755,24.575H342.377z M338.428,680.824c-9.655,0.219-22.82,3.291-22.82,18.211
		c0,10.752,5.924,14.701,10.313,14.701c4.608,0,9.874-2.852,11.849-9.215c0.438-1.536,0.658-3.292,0.658-5.047V680.824z"/>
	<path fill="#555555" d="M479.952,681.263c-0.658-14.043-1.755-33.133-1.316-48.931h-0.658c-2.634,15.798-6.583,34.01-9.435,45.42
		l-12.727,52.88H435.41l-12.288-52.003c-2.853-11.848-6.802-30.279-8.996-46.297h-0.658c-0.439,16.018-1.317,34.668-2.194,49.369
		l-2.414,51.345h-24.795l10.752-147.89h30.28l11.849,53.539c4.169,18.65,7.899,35.107,10.532,51.783h0.439
		c2.194-16.457,5.485-33.133,9.435-51.783l11.63-53.539h30.28l8.996,147.89h-25.672L479.952,681.263z"/>
	<path fill="#555555" d="M574.739,733.046l-1.536-10.532h-0.438c-5.925,8.338-14.263,12.287-23.697,12.287
		c-16.237,0-28.306-13.604-28.306-32.693c0-28.086,24.795-39.715,49.15-39.935v-2.413c0-8.339-5.047-14.482-15.14-14.482
		c-8.558,0-15.579,2.194-21.942,6.144l-5.267-19.309c5.925-3.511,18.432-8.118,33.353-8.118c32.693,0,37.96,22.819,37.96,44.542
		v39.935c0,8.558,0.438,17.334,1.755,24.575H574.739z M570.79,680.824c-9.654,0.219-22.82,3.291-22.82,18.211
		c0,10.752,5.925,14.701,10.313,14.701c4.607,0,9.874-2.852,11.849-9.215c0.438-1.536,0.658-3.292,0.658-5.047V680.824z"/>
	<path fill="#555555" d="M619.062,659.76c0-12.946-0.438-23.918-0.878-34.011h25.015l1.535,12.288h0.439
		c4.389-8.777,12.507-14.043,22.381-14.043c23.697,0,33.352,25.452,33.352,55.293c0,38.18-16.896,55.514-34.888,55.514
		c-8.776,0-14.701-5.485-17.773-10.531h-0.438v50.905h-28.744V659.76z M647.806,693.77c0,3.73,0.438,7.021,1.536,9.216
		c2.194,6.582,5.924,8.338,9.216,8.338c10.093,0,13.604-14.921,13.604-31.816c0-20.405-4.827-31.377-13.385-31.377
		c-4.388,0-8.557,4.169-9.654,9.216c-1.097,2.193-1.316,5.047-1.316,7.68V693.77z"/>
</g>
<g>
	<path fill="#555555" d="M87.142,833.245c0.592-1.316,1.185-3.028,1.711-4.739c1.185-4.477,1.185-10.664,4.476-14.153
		c0.79-0.855,1.975-1.579,3.16-1.908v-0.132c-4.673-1.448-7.636-5.068-7.636-10.664c0-4.542,1.711-7.702,4.081-9.677
		c2.831-2.304,6.78-3.291,11.256-3.291c3.292,0,6.714,0.264,9.413,0.855v43.709h-8.623v-17.707h-0.921
		c-1.514,0-2.699,0.592-3.555,1.646c-1.909,2.436-2.238,8.887-2.962,12.178c-0.329,1.316-0.658,2.633-1.25,3.884H87.142z
		 M104.98,795.593c-0.461-0.066-0.987-0.198-1.711-0.198c-4.016,0-5.727,3.226-5.727,6.583c0,4.213,2.501,6.912,6.253,6.912
		c0.527,0,0.724,0,1.185-0.066V795.593z"/>
	<path fill="#555555" d="M129.072,801.056v12.179h6.78v-12.179h8.624v32.189h-8.624v-12.704h-6.78v12.704h-8.624v-32.189H129.072z"
		/>
	<path fill="#555555" d="M175.281,801.056v25.87l2.962,0.132l-0.329,15.074h-6.517l-0.395-8.887h-15.601l-0.461,8.887h-6.451
		l-0.329-15.074l2.633-0.132c1.119-1.777,1.909-4.278,2.37-6.583c0.724-3.356,1.053-6.978,1.053-10.532v-8.755H175.281z
		 M161.786,810.403c0,3.16-0.263,6.583-0.79,9.809c-0.395,2.304-0.988,4.476-1.975,6.517h7.768v-19.024h-5.003V810.403z"/>
	<path fill="#555555" d="M189.366,820.212c0.132,5.002,3.028,6.846,6.846,6.846c2.436,0,4.608-0.526,6.122-1.054l1.185,6.188
		c-2.238,0.856-5.595,1.448-8.887,1.448c-8.755,0-13.56-5.792-13.56-15.863c0-10.796,5.595-17.247,12.902-17.247
		c6.912,0,10.927,5.464,10.927,15.206c0,2.304-0.066,3.555-0.264,4.477H189.366z M197.068,814.155c0-4.146-1.053-7.372-3.621-7.372
		c-2.831,0-3.949,4.146-4.015,7.372H197.068z"/>
	<path fill="#555555" d="M218.197,801.056v12.837h0.922l5.595-12.837h8.952l-8.294,13.824c3.226,1.053,4.871,5.003,5.727,9.216
		c0.526,2.436,1.843,6.978,2.831,9.149h-8.624c-0.921-1.777-1.58-4.542-2.304-7.833c-0.79-3.226-2.106-5.529-4.213-5.529h-0.593
		v13.362h-8.426v-32.189H218.197z"/>
	<path fill="#555555" d="M254.928,832.719c-0.856,0.395-3.028,0.921-5.464,0.921c-8.163,0-13.494-5.661-13.494-16.192
		c0-9.94,5.858-16.852,14.745-16.852c2.041,0,3.883,0.46,4.739,0.855l-1.119,6.78c-0.724-0.264-1.777-0.593-3.226-0.593
		c-4.147,0-6.583,3.949-6.583,9.545c0,5.858,2.436,9.413,6.451,9.413c1.25,0,2.304-0.197,3.226-0.658L254.928,832.719z"/>
	<path fill="#555555" d="M258.482,828.045c0-3.291,2.436-5.727,5.069-5.727c2.765,0,5.002,2.172,5.002,5.727
		c0,3.488-2.041,5.727-5.068,5.727C260.786,833.771,258.482,831.533,258.482,828.045z"/>
	<path fill="#555555" d="M282.903,788.878v19.287h0.658l7.241-19.287h9.479l-10.203,20.538c4.542,1.711,6.056,5.858,7.307,11.256
		c0.987,4.279,1.711,8.492,3.028,12.573h-8.623c-1.053-3.159-1.711-6.78-2.436-10.269c-1.053-5.2-2.238-8.558-5.793-8.558h-0.658
		v18.826h-8.426v-44.367H282.903z"/>
	<path fill="#555555" d="M317.987,833.245l-0.46-3.159h-0.132c-1.777,2.501-4.279,3.686-7.109,3.686
		c-4.871,0-8.492-4.081-8.492-9.808c0-8.426,7.438-11.915,14.745-11.98v-0.725c0-2.501-1.514-4.345-4.542-4.345
		c-2.567,0-4.673,0.659-6.583,1.844l-1.58-5.793c1.777-1.053,5.529-2.436,10.005-2.436c9.808,0,11.388,6.846,11.388,13.363v11.98
		c0,2.566,0.131,5.2,0.526,7.372H317.987z M316.803,817.578c-2.896,0.066-6.846,0.987-6.846,5.464c0,3.226,1.777,4.41,3.094,4.41
		c1.382,0,2.962-0.855,3.555-2.765c0.132-0.461,0.198-0.987,0.198-1.514V817.578z"/>
	<path fill="#555555" d="M331.284,811.259c0-3.884-0.132-7.175-0.264-10.203h7.504l0.461,3.687h0.131
		c1.316-2.633,3.752-4.213,6.714-4.213c7.109,0,10.006,7.636,10.006,16.588c0,11.454-5.069,16.654-10.467,16.654
		c-2.633,0-4.41-1.646-5.332-3.159h-0.132v15.271h-8.623V811.259z M339.907,821.462c0,1.119,0.132,2.106,0.461,2.765
		c0.658,1.976,1.777,2.502,2.765,2.502c3.028,0,4.081-4.477,4.081-9.545c0-6.122-1.448-9.413-4.015-9.413
		c-1.317,0-2.567,1.251-2.896,2.765c-0.329,0.658-0.395,1.514-0.395,2.304V821.462z"/>
	<path fill="#555555" d="M381.442,801.056v6.978h-7.175v25.212h-8.689v-25.212h-7.175v-6.978H381.442z"/>
	<path fill="#555555" d="M399.544,833.245l-0.46-3.159h-0.132c-1.777,2.501-4.279,3.686-7.109,3.686
		c-4.871,0-8.492-4.081-8.492-9.808c0-8.426,7.438-11.915,14.745-11.98v-0.725c0-2.501-1.514-4.345-4.542-4.345
		c-2.567,0-4.673,0.659-6.583,1.844l-1.58-5.793c1.777-1.053,5.529-2.436,10.005-2.436c9.808,0,11.388,6.846,11.388,13.363v11.98
		c0,2.566,0.131,5.2,0.526,7.372H399.544z M398.36,817.578c-2.896,0.066-6.846,0.987-6.846,5.464c0,3.226,1.777,4.41,3.094,4.41
		c1.382,0,2.962-0.855,3.555-2.765c0.132-0.461,0.198-0.987,0.198-1.514V817.578z"/>
	<path fill="#555555" d="M447.333,801.056v32.189h-8.623v-25.212h-6.714v25.212h-8.624v-32.189H447.333z"/>
	<path fill="#555555" d="M476.889,817.052c0,13.429-7.438,16.72-12.31,16.72c-7.702,0-12.31-6.056-12.31-16.522
		c0-11.585,6.057-16.72,12.441-16.72C472.281,800.529,476.889,806.914,476.889,817.052z M460.827,817.052
		c0,5.529,0.855,10.138,3.949,10.138c2.766,0,3.489-5.398,3.489-10.138c0-4.41-0.724-10.006-3.62-10.006
		C461.485,807.046,460.827,812.642,460.827,817.052z"/>
	<path fill="#555555" d="M500.652,801.056v12.837h0.921l5.596-12.837h8.952l-8.294,13.824c3.226,1.053,4.871,5.003,5.727,9.216
		c0.527,2.436,1.844,6.978,2.831,9.149h-8.623c-0.922-1.777-1.58-4.542-2.305-7.833c-0.79-3.226-2.106-5.529-4.213-5.529h-0.592
		v13.362h-8.426v-32.189H500.652z"/>
	<path fill="#555555" d="M543.043,817.052c0,13.429-7.438,16.72-12.31,16.72c-7.702,0-12.31-6.056-12.31-16.522
		c0-11.585,6.056-16.72,12.441-16.72C538.435,800.529,543.043,806.914,543.043,817.052z M526.981,817.052
		c0,5.529,0.855,10.138,3.949,10.138c2.765,0,3.488-5.398,3.488-10.138c0-4.41-0.724-10.006-3.62-10.006
		C527.64,807.046,526.981,812.642,526.981,817.052z"/>
	<path fill="#555555" d="M571.414,817.052c0,13.429-7.438,16.72-12.31,16.72c-7.702,0-12.31-6.056-12.31-16.522
		c0-11.585,6.056-16.72,12.441-16.72C566.806,800.529,571.414,806.914,571.414,817.052z M555.353,817.052
		c0,5.529,0.855,10.138,3.949,10.138c2.765,0,3.488-5.398,3.488-10.138c0-4.41-0.724-10.006-3.62-10.006
		C556.011,807.046,555.353,812.642,555.353,817.052z"/>
	<path fill="#555555" d="M576.219,811.259c0-3.884-0.132-7.175-0.263-10.203h7.504l0.461,3.687h0.132
		c1.316-2.633,3.752-4.213,6.714-4.213c7.109,0,10.006,7.636,10.006,16.588c0,11.454-5.068,16.654-10.467,16.654
		c-2.633,0-4.41-1.646-5.332-3.159h-0.131v15.271h-8.624V811.259z M584.843,821.462c0,1.119,0.131,2.106,0.46,2.765
		c0.658,1.976,1.777,2.502,2.765,2.502c3.028,0,4.082-4.477,4.082-9.545c0-6.122-1.448-9.413-4.016-9.413
		c-1.316,0-2.567,1.251-2.896,2.765c-0.329,0.658-0.395,1.514-0.395,2.304V821.462z"/>
	<path fill="#555555" d="M630.459,801.056v25.87l2.963,0.132l-0.329,15.074h-6.518l-0.395-8.887H610.58l-0.461,8.887h-6.451
		l-0.329-15.074l2.633-0.132c1.119-1.777,1.909-4.278,2.37-6.583c0.724-3.356,1.053-6.978,1.053-10.532v-8.755H630.459z
		 M616.965,810.403c0,3.16-0.263,6.583-0.79,9.809c-0.395,2.304-0.987,4.476-1.975,6.517h7.768v-19.024h-5.003V810.403z"/>
	<path fill="#555555" d="M645.138,801.056v6.978c0,5.859-0.329,11.52-0.658,14.812h0.197c1.053-3.357,2.501-6.978,3.555-9.545
		l4.871-12.244h8.162v32.189h-7.833v-7.043c0-6.518,0.329-10.203,0.526-14.482h-0.197c-0.987,3.357-1.844,6.057-3.094,9.15
		c-0.856,2.172-3.423,8.491-5.267,12.375h-8.03v-32.189H645.138z"/>
	<path fill="#555555" d="M675.877,801.056v12.179h6.78v-12.179h8.623v32.189h-8.623v-12.704h-6.78v12.704h-8.623v-32.189H675.877z"
		/>
	<path fill="#555555" d="M711.752,833.245l-0.461-3.159h-0.132c-1.777,2.501-4.278,3.686-7.109,3.686
		c-4.871,0-8.491-4.081-8.491-9.808c0-8.426,7.438-11.915,14.745-11.98v-0.725c0-2.501-1.515-4.345-4.542-4.345
		c-2.567,0-4.674,0.659-6.583,1.844l-1.58-5.793c1.777-1.053,5.529-2.436,10.006-2.436c9.809,0,11.388,6.846,11.388,13.363v11.98
		c0,2.566,0.132,5.2,0.527,7.372H711.752z M710.566,817.578c-2.896,0.066-6.846,0.987-6.846,5.464c0,3.226,1.777,4.41,3.094,4.41
		c1.383,0,2.962-0.855,3.555-2.765c0.132-0.461,0.197-0.987,0.197-1.514V817.578z"/>
	<path fill="#555555" d="M745.783,801.056v6.978h-7.175v25.212h-8.689v-25.212h-7.175v-6.978H745.783z"/>
	<path fill="#555555" d="M763.885,833.245l-0.461-3.159h-0.132c-1.777,2.501-4.278,3.686-7.109,3.686
		c-4.871,0-8.491-4.081-8.491-9.808c0-8.426,7.438-11.915,14.745-11.98v-0.725c0-2.501-1.515-4.345-4.542-4.345
		c-2.567,0-4.674,0.659-6.583,1.844l-1.58-5.793c1.777-1.053,5.529-2.436,10.006-2.436c9.809,0,11.388,6.846,11.388,13.363v11.98
		c0,2.566,0.132,5.2,0.527,7.372H763.885z M762.699,817.578c-2.896,0.066-6.846,0.987-6.846,5.464c0,3.226,1.777,4.41,3.094,4.41
		c1.383,0,2.962-0.855,3.555-2.765c0.132-0.461,0.197-0.987,0.197-1.514V817.578z"/>
	<path fill="#555555" d="M778.695,801.056h10.729l2.369,10.27c0.659,2.765,1.251,5.266,2.173,9.413h0.197
		c0.855-4.081,1.316-6.715,1.909-9.413l2.238-10.27h10.729l2.106,32.189h-8.031l-0.395-11.256
		c-0.066-3.028-0.197-6.847-0.329-13.627h-0.132c-0.526,2.765-1.58,8.36-2.699,13.298l-2.501,11.059h-6.978l-2.567-11.19
		c-0.79-3.621-1.909-9.874-2.633-13.166h-0.132c-0.065,6.648-0.197,10.532-0.264,13.692l-0.329,11.19h-7.768L778.695,801.056z"/>
</g>
</svg>
